<?xml version="1.0" encoding="utf-8"?>
<svg version="1.1" baseProfile="full"  width="464" height="464" viewBox="0 0 464 464"
		 xmlns="http://www.w3.org/2000/svg" xmlns:xlink="http://www.w3.org/1999/xlink" xmlns:ev="http://www.w3.org/2001/xml-events">
<desc></desc>
<rect width="464" height="464" fill="#ffffff" cx="0" cy="0" />
<defs>
<rect id="p" width="16" height="16" />
</defs>
<g fill="#000000">
<use x="0" y="0" xlink:href="#p" />
<use x="0" y="16" xlink:href="#p" />
<use x="0" y="32" xlink:href="#p" />
<use x="0" y="48" xlink:href="#p" />
<use x="0" y="64" xlink:href="#p" />
<use x="0" y="80" xlink:href="#p" />
<use x="0" y="96" xlink:href="#p" />
<use x="0" y="128" xlink:href="#p" />
<use x="0" y="240" xlink:href="#p" />
<use x="0" y="272" xlink:href="#p" />
<use x="0" y="304" xlink:href="#p" />
<use x="0" y="320" xlink:href="#p" />
<use x="0" y="352" xlink:href="#p" />
<use x="0" y="368" xlink:href="#p" />
<use x="0" y="384" xlink:href="#p" />
<use x="0" y="400" xlink:href="#p" />
<use x="0" y="416" xlink:href="#p" />
<use x="0" y="432" xlink:href="#p" />
<use x="0" y="448" xlink:href="#p" />
<use x="16" y="0" xlink:href="#p" />
<use x="16" y="96" xlink:href="#p" />
<use x="16" y="192" xlink:href="#p" />
<use x="16" y="208" xlink:href="#p" />
<use x="16" y="288" xlink:href="#p" />
<use x="16" y="304" xlink:href="#p" />
<use x="16" y="352" xlink:href="#p" />
<use x="16" y="448" xlink:href="#p" />
<use x="32" y="0" xlink:href="#p" />
<use x="32" y="32" xlink:href="#p" />
<use x="32" y="48" xlink:href="#p" />
<use x="32" y="64" xlink:href="#p" />
<use x="32" y="96" xlink:href="#p" />
<use x="32" y="128" xlink:href="#p" />
<use x="32" y="160" xlink:href="#p" />
<use x="32" y="192" xlink:href="#p" />
<use x="32" y="272" xlink:href="#p" />
<use x="32" y="288" xlink:href="#p" />
<use x="32" y="352" xlink:href="#p" />
<use x="32" y="384" xlink:href="#p" />
<use x="32" y="400" xlink:href="#p" />
<use x="32" y="416" xlink:href="#p" />
<use x="32" y="448" xlink:href="#p" />
<use x="48" y="0" xlink:href="#p" />
<use x="48" y="32" xlink:href="#p" />
<use x="48" y="48" xlink:href="#p" />
<use x="48" y="64" xlink:href="#p" />
<use x="48" y="96" xlink:href="#p" />
<use x="48" y="128" xlink:href="#p" />
<use x="48" y="160" xlink:href="#p" />
<use x="48" y="176" xlink:href="#p" />
<use x="48" y="208" xlink:href="#p" />
<use x="48" y="224" xlink:href="#p" />
<use x="48" y="272" xlink:href="#p" />
<use x="48" y="352" xlink:href="#p" />
<use x="48" y="384" xlink:href="#p" />
<use x="48" y="400" xlink:href="#p" />
<use x="48" y="416" xlink:href="#p" />
<use x="48" y="448" xlink:href="#p" />
<use x="64" y="0" xlink:href="#p" />
<use x="64" y="32" xlink:href="#p" />
<use x="64" y="48" xlink:href="#p" />
<use x="64" y="64" xlink:href="#p" />
<use x="64" y="96" xlink:href="#p" />
<use x="64" y="208" xlink:href="#p" />
<use x="64" y="240" xlink:href="#p" />
<use x="64" y="256" xlink:href="#p" />
<use x="64" y="288" xlink:href="#p" />
<use x="64" y="304" xlink:href="#p" />
<use x="64" y="320" xlink:href="#p" />
<use x="64" y="352" xlink:href="#p" />
<use x="64" y="384" xlink:href="#p" />
<use x="64" y="400" xlink:href="#p" />
<use x="64" y="416" xlink:href="#p" />
<use x="64" y="448" xlink:href="#p" />
<use x="80" y="0" xlink:href="#p" />
<use x="80" y="96" xlink:href="#p" />
<use x="80" y="128" xlink:href="#p" />
<use x="80" y="192" xlink:href="#p" />
<use x="80" y="272" xlink:href="#p" />
<use x="80" y="288" xlink:href="#p" />
<use x="80" y="304" xlink:href="#p" />
<use x="80" y="320" xlink:href="#p" />
<use x="80" y="352" xlink:href="#p" />
<use x="80" y="448" xlink:href="#p" />
<use x="96" y="0" xlink:href="#p" />
<use x="96" y="16" xlink:href="#p" />
<use x="96" y="32" xlink:href="#p" />
<use x="96" y="48" xlink:href="#p" />
<use x="96" y="64" xlink:href="#p" />
<use x="96" y="80" xlink:href="#p" />
<use x="96" y="96" xlink:href="#p" />
<use x="96" y="128" xlink:href="#p" />
<use x="96" y="160" xlink:href="#p" />
<use x="96" y="192" xlink:href="#p" />
<use x="96" y="224" xlink:href="#p" />
<use x="96" y="256" xlink:href="#p" />
<use x="96" y="288" xlink:href="#p" />
<use x="96" y="320" xlink:href="#p" />
<use x="96" y="352" xlink:href="#p" />
<use x="96" y="368" xlink:href="#p" />
<use x="96" y="384" xlink:href="#p" />
<use x="96" y="400" xlink:href="#p" />
<use x="96" y="416" xlink:href="#p" />
<use x="96" y="432" xlink:href="#p" />
<use x="96" y="448" xlink:href="#p" />
<use x="112" y="128" xlink:href="#p" />
<use x="112" y="176" xlink:href="#p" />
<use x="112" y="224" xlink:href="#p" />
<use x="112" y="256" xlink:href="#p" />
<use x="112" y="320" xlink:href="#p" />
<use x="128" y="0" xlink:href="#p" />
<use x="128" y="16" xlink:href="#p" />
<use x="128" y="48" xlink:href="#p" />
<use x="128" y="96" xlink:href="#p" />
<use x="128" y="112" xlink:href="#p" />
<use x="128" y="144" xlink:href="#p" />
<use x="128" y="160" xlink:href="#p" />
<use x="128" y="176" xlink:href="#p" />
<use x="128" y="192" xlink:href="#p" />
<use x="128" y="240" xlink:href="#p" />
<use x="128" y="272" xlink:href="#p" />
<use x="128" y="288" xlink:href="#p" />
<use x="128" y="304" xlink:href="#p" />
<use x="128" y="336" xlink:href="#p" />
<use x="128" y="352" xlink:href="#p" />
<use x="128" y="368" xlink:href="#p" />
<use x="128" y="400" xlink:href="#p" />
<use x="128" y="416" xlink:href="#p" />
<use x="128" y="448" xlink:href="#p" />
<use x="144" y="16" xlink:href="#p" />
<use x="144" y="64" xlink:href="#p" />
<use x="144" y="176" xlink:href="#p" />
<use x="144" y="192" xlink:href="#p" />
<use x="144" y="208" xlink:href="#p" />
<use x="144" y="224" xlink:href="#p" />
<use x="144" y="240" xlink:href="#p" />
<use x="144" y="304" xlink:href="#p" />
<use x="144" y="352" xlink:href="#p" />
<use x="144" y="416" xlink:href="#p" />
<use x="160" y="16" xlink:href="#p" />
<use x="160" y="80" xlink:href="#p" />
<use x="160" y="96" xlink:href="#p" />
<use x="160" y="112" xlink:href="#p" />
<use x="160" y="128" xlink:href="#p" />
<use x="160" y="160" xlink:href="#p" />
<use x="160" y="192" xlink:href="#p" />
<use x="160" y="224" xlink:href="#p" />
<use x="160" y="240" xlink:href="#p" />
<use x="160" y="256" xlink:href="#p" />
<use x="160" y="272" xlink:href="#p" />
<use x="160" y="288" xlink:href="#p" />
<use x="160" y="304" xlink:href="#p" />
<use x="160" y="320" xlink:href="#p" />
<use x="160" y="352" xlink:href="#p" />
<use x="160" y="384" xlink:href="#p" />
<use x="160" y="416" xlink:href="#p" />
<use x="176" y="64" xlink:href="#p" />
<use x="176" y="112" xlink:href="#p" />
<use x="176" y="160" xlink:href="#p" />
<use x="176" y="208" xlink:href="#p" />
<use x="176" y="240" xlink:href="#p" />
<use x="176" y="320" xlink:href="#p" />
<use x="176" y="384" xlink:href="#p" />
<use x="176" y="400" xlink:href="#p" />
<use x="176" y="416" xlink:href="#p" />
<use x="176" y="432" xlink:href="#p" />
<use x="192" y="0" xlink:href="#p" />
<use x="192" y="48" xlink:href="#p" />
<use x="192" y="96" xlink:href="#p" />
<use x="192" y="112" xlink:href="#p" />
<use x="192" y="192" xlink:href="#p" />
<use x="192" y="224" xlink:href="#p" />
<use x="192" y="288" xlink:href="#p" />
<use x="192" y="320" xlink:href="#p" />
<use x="192" y="352" xlink:href="#p" />
<use x="192" y="368" xlink:href="#p" />
<use x="192" y="384" xlink:href="#p" />
<use x="192" y="400" xlink:href="#p" />
<use x="192" y="416" xlink:href="#p" />
<use x="192" y="432" xlink:href="#p" />
<use x="192" y="448" xlink:href="#p" />
<use x="208" y="0" xlink:href="#p" />
<use x="208" y="16" xlink:href="#p" />
<use x="208" y="80" xlink:href="#p" />
<use x="208" y="128" xlink:href="#p" />
<use x="208" y="144" xlink:href="#p" />
<use x="208" y="160" xlink:href="#p" />
<use x="208" y="224" xlink:href="#p" />
<use x="208" y="288" xlink:href="#p" />
<use x="208" y="304" xlink:href="#p" />
<use x="208" y="320" xlink:href="#p" />
<use x="208" y="368" xlink:href="#p" />
<use x="208" y="400" xlink:href="#p" />
<use x="224" y="0" xlink:href="#p" />
<use x="224" y="48" xlink:href="#p" />
<use x="224" y="64" xlink:href="#p" />
<use x="224" y="96" xlink:href="#p" />
<use x="224" y="144" xlink:href="#p" />
<use x="224" y="192" xlink:href="#p" />
<use x="224" y="208" xlink:href="#p" />
<use x="224" y="240" xlink:href="#p" />
<use x="224" y="256" xlink:href="#p" />
<use x="224" y="272" xlink:href="#p" />
<use x="224" y="288" xlink:href="#p" />
<use x="224" y="304" xlink:href="#p" />
<use x="224" y="320" xlink:href="#p" />
<use x="224" y="352" xlink:href="#p" />
<use x="224" y="368" xlink:href="#p" />
<use x="224" y="448" xlink:href="#p" />
<use x="240" y="0" xlink:href="#p" />
<use x="240" y="48" xlink:href="#p" />
<use x="240" y="80" xlink:href="#p" />
<use x="240" y="112" xlink:href="#p" />
<use x="240" y="128" xlink:href="#p" />
<use x="240" y="144" xlink:href="#p" />
<use x="240" y="176" xlink:href="#p" />
<use x="240" y="192" xlink:href="#p" />
<use x="240" y="208" xlink:href="#p" />
<use x="240" y="256" xlink:href="#p" />
<use x="240" y="272" xlink:href="#p" />
<use x="240" y="288" xlink:href="#p" />
<use x="240" y="320" xlink:href="#p" />
<use x="240" y="400" xlink:href="#p" />
<use x="240" y="448" xlink:href="#p" />
<use x="256" y="16" xlink:href="#p" />
<use x="256" y="32" xlink:href="#p" />
<use x="256" y="64" xlink:href="#p" />
<use x="256" y="80" xlink:href="#p" />
<use x="256" y="96" xlink:href="#p" />
<use x="256" y="112" xlink:href="#p" />
<use x="256" y="128" xlink:href="#p" />
<use x="256" y="160" xlink:href="#p" />
<use x="256" y="176" xlink:href="#p" />
<use x="256" y="192" xlink:href="#p" />
<use x="256" y="208" xlink:href="#p" />
<use x="256" y="224" xlink:href="#p" />
<use x="256" y="240" xlink:href="#p" />
<use x="256" y="288" xlink:href="#p" />
<use x="256" y="320" xlink:href="#p" />
<use x="256" y="336" xlink:href="#p" />
<use x="256" y="400" xlink:href="#p" />
<use x="256" y="432" xlink:href="#p" />
<use x="272" y="0" xlink:href="#p" />
<use x="272" y="48" xlink:href="#p" />
<use x="272" y="80" xlink:href="#p" />
<use x="272" y="112" xlink:href="#p" />
<use x="272" y="128" xlink:href="#p" />
<use x="272" y="192" xlink:href="#p" />
<use x="272" y="208" xlink:href="#p" />
<use x="272" y="224" xlink:href="#p" />
<use x="272" y="304" xlink:href="#p" />
<use x="272" y="320" xlink:href="#p" />
<use x="272" y="352" xlink:href="#p" />
<use x="272" y="384" xlink:href="#p" />
<use x="272" y="416" xlink:href="#p" />
<use x="288" y="0" xlink:href="#p" />
<use x="288" y="16" xlink:href="#p" />
<use x="288" y="48" xlink:href="#p" />
<use x="288" y="80" xlink:href="#p" />
<use x="288" y="96" xlink:href="#p" />
<use x="288" y="112" xlink:href="#p" />
<use x="288" y="128" xlink:href="#p" />
<use x="288" y="144" xlink:href="#p" />
<use x="288" y="208" xlink:href="#p" />
<use x="288" y="240" xlink:href="#p" />
<use x="288" y="256" xlink:href="#p" />
<use x="288" y="272" xlink:href="#p" />
<use x="288" y="304" xlink:href="#p" />
<use x="288" y="320" xlink:href="#p" />
<use x="288" y="352" xlink:href="#p" />
<use x="288" y="368" xlink:href="#p" />
<use x="288" y="416" xlink:href="#p" />
<use x="288" y="432" xlink:href="#p" />
<use x="288" y="448" xlink:href="#p" />
<use x="304" y="0" xlink:href="#p" />
<use x="304" y="32" xlink:href="#p" />
<use x="304" y="48" xlink:href="#p" />
<use x="304" y="64" xlink:href="#p" />
<use x="304" y="80" xlink:href="#p" />
<use x="304" y="112" xlink:href="#p" />
<use x="304" y="144" xlink:href="#p" />
<use x="304" y="176" xlink:href="#p" />
<use x="304" y="192" xlink:href="#p" />
<use x="304" y="208" xlink:href="#p" />
<use x="304" y="224" xlink:href="#p" />
<use x="304" y="240" xlink:href="#p" />
<use x="304" y="256" xlink:href="#p" />
<use x="304" y="304" xlink:href="#p" />
<use x="304" y="320" xlink:href="#p" />
<use x="304" y="352" xlink:href="#p" />
<use x="320" y="0" xlink:href="#p" />
<use x="320" y="80" xlink:href="#p" />
<use x="320" y="96" xlink:href="#p" />
<use x="320" y="176" xlink:href="#p" />
<use x="320" y="224" xlink:href="#p" />
<use x="320" y="240" xlink:href="#p" />
<use x="320" y="256" xlink:href="#p" />
<use x="320" y="272" xlink:href="#p" />
<use x="320" y="288" xlink:href="#p" />
<use x="320" y="304" xlink:href="#p" />
<use x="320" y="320" xlink:href="#p" />
<use x="320" y="336" xlink:href="#p" />
<use x="320" y="352" xlink:href="#p" />
<use x="320" y="368" xlink:href="#p" />
<use x="320" y="384" xlink:href="#p" />
<use x="320" y="416" xlink:href="#p" />
<use x="320" y="432" xlink:href="#p" />
<use x="320" y="448" xlink:href="#p" />
<use x="336" y="144" xlink:href="#p" />
<use x="336" y="160" xlink:href="#p" />
<use x="336" y="176" xlink:href="#p" />
<use x="336" y="224" xlink:href="#p" />
<use x="336" y="240" xlink:href="#p" />
<use x="336" y="256" xlink:href="#p" />
<use x="336" y="288" xlink:href="#p" />
<use x="336" y="304" xlink:href="#p" />
<use x="336" y="320" xlink:href="#p" />
<use x="336" y="384" xlink:href="#p" />
<use x="336" y="400" xlink:href="#p" />
<use x="352" y="0" xlink:href="#p" />
<use x="352" y="16" xlink:href="#p" />
<use x="352" y="32" xlink:href="#p" />
<use x="352" y="48" xlink:href="#p" />
<use x="352" y="64" xlink:href="#p" />
<use x="352" y="80" xlink:href="#p" />
<use x="352" y="96" xlink:href="#p" />
<use x="352" y="128" xlink:href="#p" />
<use x="352" y="144" xlink:href="#p" />
<use x="352" y="176" xlink:href="#p" />
<use x="352" y="208" xlink:href="#p" />
<use x="352" y="224" xlink:href="#p" />
<use x="352" y="288" xlink:href="#p" />
<use x="352" y="320" xlink:href="#p" />
<use x="352" y="352" xlink:href="#p" />
<use x="352" y="384" xlink:href="#p" />
<use x="352" y="432" xlink:href="#p" />
<use x="352" y="448" xlink:href="#p" />
<use x="368" y="0" xlink:href="#p" />
<use x="368" y="96" xlink:href="#p" />
<use x="368" y="144" xlink:href="#p" />
<use x="368" y="240" xlink:href="#p" />
<use x="368" y="256" xlink:href="#p" />
<use x="368" y="272" xlink:href="#p" />
<use x="368" y="288" xlink:href="#p" />
<use x="368" y="304" xlink:href="#p" />
<use x="368" y="320" xlink:href="#p" />
<use x="368" y="384" xlink:href="#p" />
<use x="368" y="400" xlink:href="#p" />
<use x="368" y="416" xlink:href="#p" />
<use x="384" y="0" xlink:href="#p" />
<use x="384" y="32" xlink:href="#p" />
<use x="384" y="48" xlink:href="#p" />
<use x="384" y="64" xlink:href="#p" />
<use x="384" y="96" xlink:href="#p" />
<use x="384" y="144" xlink:href="#p" />
<use x="384" y="160" xlink:href="#p" />
<use x="384" y="176" xlink:href="#p" />
<use x="384" y="224" xlink:href="#p" />
<use x="384" y="256" xlink:href="#p" />
<use x="384" y="288" xlink:href="#p" />
<use x="384" y="304" xlink:href="#p" />
<use x="384" y="320" xlink:href="#p" />
<use x="384" y="336" xlink:href="#p" />
<use x="384" y="352" xlink:href="#p" />
<use x="384" y="368" xlink:href="#p" />
<use x="384" y="384" xlink:href="#p" />
<use x="384" y="400" xlink:href="#p" />
<use x="384" y="432" xlink:href="#p" />
<use x="384" y="448" xlink:href="#p" />
<use x="400" y="0" xlink:href="#p" />
<use x="400" y="32" xlink:href="#p" />
<use x="400" y="48" xlink:href="#p" />
<use x="400" y="64" xlink:href="#p" />
<use x="400" y="96" xlink:href="#p" />
<use x="400" y="128" xlink:href="#p" />
<use x="400" y="192" xlink:href="#p" />
<use x="400" y="256" xlink:href="#p" />
<use x="400" y="272" xlink:href="#p" />
<use x="400" y="320" xlink:href="#p" />
<use x="400" y="336" xlink:href="#p" />
<use x="400" y="352" xlink:href="#p" />
<use x="400" y="368" xlink:href="#p" />
<use x="400" y="400" xlink:href="#p" />
<use x="400" y="432" xlink:href="#p" />
<use x="416" y="0" xlink:href="#p" />
<use x="416" y="32" xlink:href="#p" />
<use x="416" y="48" xlink:href="#p" />
<use x="416" y="64" xlink:href="#p" />
<use x="416" y="96" xlink:href="#p" />
<use x="416" y="160" xlink:href="#p" />
<use x="416" y="192" xlink:href="#p" />
<use x="416" y="208" xlink:href="#p" />
<use x="416" y="224" xlink:href="#p" />
<use x="416" y="272" xlink:href="#p" />
<use x="416" y="288" xlink:href="#p" />
<use x="416" y="304" xlink:href="#p" />
<use x="416" y="320" xlink:href="#p" />
<use x="416" y="336" xlink:href="#p" />
<use x="416" y="384" xlink:href="#p" />
<use x="416" y="416" xlink:href="#p" />
<use x="432" y="0" xlink:href="#p" />
<use x="432" y="96" xlink:href="#p" />
<use x="432" y="128" xlink:href="#p" />
<use x="432" y="160" xlink:href="#p" />
<use x="432" y="208" xlink:href="#p" />
<use x="432" y="224" xlink:href="#p" />
<use x="432" y="240" xlink:href="#p" />
<use x="432" y="256" xlink:href="#p" />
<use x="432" y="272" xlink:href="#p" />
<use x="432" y="336" xlink:href="#p" />
<use x="432" y="352" xlink:href="#p" />
<use x="432" y="384" xlink:href="#p" />
<use x="432" y="432" xlink:href="#p" />
<use x="432" y="448" xlink:href="#p" />
<use x="448" y="0" xlink:href="#p" />
<use x="448" y="16" xlink:href="#p" />
<use x="448" y="32" xlink:href="#p" />
<use x="448" y="48" xlink:href="#p" />
<use x="448" y="64" xlink:href="#p" />
<use x="448" y="80" xlink:href="#p" />
<use x="448" y="96" xlink:href="#p" />
<use x="448" y="128" xlink:href="#p" />
<use x="448" y="144" xlink:href="#p" />
<use x="448" y="176" xlink:href="#p" />
<use x="448" y="208" xlink:href="#p" />
<use x="448" y="224" xlink:href="#p" />
<use x="448" y="336" xlink:href="#p" />
<use x="448" y="400" xlink:href="#p" />
<use x="448" y="416" xlink:href="#p" />
</g>
</svg>